<mxfile host="Electron" modified="2024-05-22T21:34:17.669Z" agent="Mozilla/5.0 (Windows NT 10.0; Win64; x64) AppleWebKit/537.36 (KHTML, like Gecko) draw.io/22.1.11 Chrome/114.0.5735.289 Electron/25.9.8 Safari/537.36" etag="TTBdPnE6c_8x-tcpgxud" version="22.1.11" type="device">
  <diagram id="C5RBs43oDa-KdzZeNtuy" name="Page-1">
    <mxGraphModel dx="1449" dy="1409" grid="1" gridSize="10" guides="1" tooltips="1" connect="1" arrows="1" fold="1" page="1" pageScale="1" pageWidth="827" pageHeight="1169" math="0" shadow="0">
      <root>
        <mxCell id="WIyWlLk6GJQsqaUBKTNV-0" />
        <mxCell id="WIyWlLk6GJQsqaUBKTNV-1" parent="WIyWlLk6GJQsqaUBKTNV-0" />
        <mxCell id="WIyWlLk6GJQsqaUBKTNV-2" value="" style="rounded=0;html=1;jettySize=auto;orthogonalLoop=1;fontSize=11;endArrow=classic;endFill=1;endSize=8;strokeWidth=1;shadow=0;labelBackgroundColor=none;edgeStyle=orthogonalEdgeStyle;" parent="WIyWlLk6GJQsqaUBKTNV-1" source="WIyWlLk6GJQsqaUBKTNV-3" target="WIyWlLk6GJQsqaUBKTNV-6" edge="1">
          <mxGeometry relative="1" as="geometry">
            <mxPoint x="120" y="230" as="targetPoint" />
          </mxGeometry>
        </mxCell>
        <mxCell id="WIyWlLk6GJQsqaUBKTNV-3" value="Клиент хочет оставить заявку" style="rounded=0;whiteSpace=wrap;html=1;fontSize=12;glass=0;strokeWidth=1;shadow=0;fillColor=#f5f5f5;fontColor=#333333;strokeColor=#666666;" parent="WIyWlLk6GJQsqaUBKTNV-1" vertex="1">
          <mxGeometry x="60" y="140" width="120" height="40" as="geometry" />
        </mxCell>
        <mxCell id="WIyWlLk6GJQsqaUBKTNV-4" value="Да" style="rounded=0;html=1;jettySize=auto;orthogonalLoop=1;fontSize=11;endArrow=classic;endFill=1;endSize=8;strokeWidth=1;shadow=0;labelBackgroundColor=none;edgeStyle=orthogonalEdgeStyle;" parent="WIyWlLk6GJQsqaUBKTNV-1" source="WIyWlLk6GJQsqaUBKTNV-6" target="TQRET4Z9Z2pxtcugi2uB-5" edge="1">
          <mxGeometry x="-0.1429" y="10" relative="1" as="geometry">
            <mxPoint as="offset" />
          </mxGeometry>
        </mxCell>
        <mxCell id="WIyWlLk6GJQsqaUBKTNV-5" value="Нет" style="edgeStyle=orthogonalEdgeStyle;rounded=0;html=1;jettySize=auto;orthogonalLoop=1;fontSize=11;endArrow=classic;endFill=1;endSize=8;strokeWidth=1;shadow=0;labelBackgroundColor=none;" parent="WIyWlLk6GJQsqaUBKTNV-1" source="WIyWlLk6GJQsqaUBKTNV-6" target="WIyWlLk6GJQsqaUBKTNV-7" edge="1">
          <mxGeometry x="-0.8909" y="10" relative="1" as="geometry">
            <mxPoint as="offset" />
            <Array as="points">
              <mxPoint x="280" y="270" />
            </Array>
          </mxGeometry>
        </mxCell>
        <mxCell id="WIyWlLk6GJQsqaUBKTNV-6" value="Клиент зарегистрирован?" style="rhombus;whiteSpace=wrap;html=1;shadow=0;fontFamily=Helvetica;fontSize=12;align=center;strokeWidth=1;spacing=6;spacingTop=-4;fillColor=#dae8fc;strokeColor=#6c8ebf;" parent="WIyWlLk6GJQsqaUBKTNV-1" vertex="1">
          <mxGeometry x="47.5" y="230" width="145" height="80" as="geometry" />
        </mxCell>
        <mxCell id="TQRET4Z9Z2pxtcugi2uB-9" style="edgeStyle=orthogonalEdgeStyle;rounded=0;orthogonalLoop=1;jettySize=auto;html=1;exitX=0;exitY=0.5;exitDx=0;exitDy=0;endArrow=classic;endFill=1;entryX=0.5;entryY=0;entryDx=0;entryDy=0;" parent="WIyWlLk6GJQsqaUBKTNV-1" source="WIyWlLk6GJQsqaUBKTNV-7" edge="1" target="TQRET4Z9Z2pxtcugi2uB-5">
          <mxGeometry relative="1" as="geometry">
            <mxPoint x="120" y="330" as="targetPoint" />
          </mxGeometry>
        </mxCell>
        <mxCell id="WIyWlLk6GJQsqaUBKTNV-7" value="Админстратор регистрирует клиента" style="rounded=0;whiteSpace=wrap;html=1;fontSize=12;glass=0;strokeWidth=1;shadow=0;fillColor=#f5f5f5;strokeColor=#666666;fontColor=#333333;" parent="WIyWlLk6GJQsqaUBKTNV-1" vertex="1">
          <mxGeometry x="210" y="330" width="130" height="40" as="geometry" />
        </mxCell>
        <mxCell id="TQRET4Z9Z2pxtcugi2uB-0" value="Начало учёта заявки" style="strokeWidth=1;html=1;shape=mxgraph.flowchart.terminator;whiteSpace=wrap;" parent="WIyWlLk6GJQsqaUBKTNV-1" vertex="1">
          <mxGeometry x="70" y="40" width="100" height="50" as="geometry" />
        </mxCell>
        <mxCell id="TQRET4Z9Z2pxtcugi2uB-1" value="Конец учёта заявки" style="strokeWidth=1;html=1;shape=mxgraph.flowchart.terminator;whiteSpace=wrap;" parent="WIyWlLk6GJQsqaUBKTNV-1" vertex="1">
          <mxGeometry x="70" y="1210" width="100" height="60" as="geometry" />
        </mxCell>
        <mxCell id="TQRET4Z9Z2pxtcugi2uB-11" style="edgeStyle=orthogonalEdgeStyle;rounded=0;orthogonalLoop=1;jettySize=auto;html=1;exitX=0.5;exitY=1;exitDx=0;exitDy=0;" parent="WIyWlLk6GJQsqaUBKTNV-1" source="TQRET4Z9Z2pxtcugi2uB-5" target="TQRET4Z9Z2pxtcugi2uB-10" edge="1">
          <mxGeometry relative="1" as="geometry" />
        </mxCell>
        <mxCell id="TQRET4Z9Z2pxtcugi2uB-5" value="Клиент авторизовывается в систему" style="rounded=0;whiteSpace=wrap;html=1;fontSize=12;glass=0;strokeWidth=1;shadow=0;fillColor=#f5f5f5;strokeColor=#666666;fontColor=#333333;" parent="WIyWlLk6GJQsqaUBKTNV-1" vertex="1">
          <mxGeometry x="60" y="380" width="120" height="50" as="geometry" />
        </mxCell>
        <mxCell id="TQRET4Z9Z2pxtcugi2uB-6" value="" style="rounded=0;html=1;jettySize=auto;orthogonalLoop=1;fontSize=11;endArrow=classic;endFill=1;endSize=8;strokeWidth=1;shadow=0;labelBackgroundColor=none;edgeStyle=orthogonalEdgeStyle;" parent="WIyWlLk6GJQsqaUBKTNV-1" source="TQRET4Z9Z2pxtcugi2uB-0" target="WIyWlLk6GJQsqaUBKTNV-3" edge="1">
          <mxGeometry relative="1" as="geometry">
            <mxPoint x="130" y="190" as="sourcePoint" />
            <mxPoint x="130" y="240" as="targetPoint" />
          </mxGeometry>
        </mxCell>
        <mxCell id="TQRET4Z9Z2pxtcugi2uB-16" style="edgeStyle=orthogonalEdgeStyle;rounded=0;orthogonalLoop=1;jettySize=auto;html=1;exitX=0.5;exitY=1;exitDx=0;exitDy=0;" parent="WIyWlLk6GJQsqaUBKTNV-1" source="TQRET4Z9Z2pxtcugi2uB-10" target="TQRET4Z9Z2pxtcugi2uB-12" edge="1">
          <mxGeometry relative="1" as="geometry" />
        </mxCell>
        <mxCell id="TQRET4Z9Z2pxtcugi2uB-10" value="Клиент создаёт новую заявку, описывает проблему" style="rounded=0;whiteSpace=wrap;html=1;fontSize=12;glass=0;strokeWidth=1;shadow=0;fillColor=#f5f5f5;strokeColor=#666666;fontColor=#333333;" parent="WIyWlLk6GJQsqaUBKTNV-1" vertex="1">
          <mxGeometry x="60" y="470" width="120" height="50" as="geometry" />
        </mxCell>
        <mxCell id="TQRET4Z9Z2pxtcugi2uB-17" style="edgeStyle=orthogonalEdgeStyle;rounded=0;orthogonalLoop=1;jettySize=auto;html=1;exitX=0.5;exitY=1;exitDx=0;exitDy=0;entryX=0.5;entryY=0;entryDx=0;entryDy=0;" parent="WIyWlLk6GJQsqaUBKTNV-1" source="TQRET4Z9Z2pxtcugi2uB-12" target="TQRET4Z9Z2pxtcugi2uB-13" edge="1">
          <mxGeometry relative="1" as="geometry">
            <Array as="points">
              <mxPoint x="120" y="635" />
            </Array>
          </mxGeometry>
        </mxCell>
        <mxCell id="TQRET4Z9Z2pxtcugi2uB-12" value="Оператор регистрирует заявку" style="rounded=0;whiteSpace=wrap;html=1;fontSize=12;glass=0;strokeWidth=1;shadow=0;fillColor=#f5f5f5;strokeColor=#666666;fontColor=#333333;" parent="WIyWlLk6GJQsqaUBKTNV-1" vertex="1">
          <mxGeometry x="60" y="550" width="120" height="50" as="geometry" />
        </mxCell>
        <mxCell id="saAbReULlgdan71qu-na-2" style="edgeStyle=orthogonalEdgeStyle;rounded=0;orthogonalLoop=1;jettySize=auto;html=1;entryX=0.5;entryY=0;entryDx=0;entryDy=0;" parent="WIyWlLk6GJQsqaUBKTNV-1" source="TQRET4Z9Z2pxtcugi2uB-13" target="TQRET4Z9Z2pxtcugi2uB-22" edge="1">
          <mxGeometry relative="1" as="geometry" />
        </mxCell>
        <mxCell id="TQRET4Z9Z2pxtcugi2uB-13" value="Оператор обрабатывает заявку и назначает специалист&amp;nbsp;" style="rounded=0;whiteSpace=wrap;html=1;fontSize=12;glass=0;strokeWidth=1;shadow=0;fillColor=#f5f5f5;strokeColor=#666666;fontColor=#333333;" parent="WIyWlLk6GJQsqaUBKTNV-1" vertex="1">
          <mxGeometry x="55" y="640" width="130" height="65" as="geometry" />
        </mxCell>
        <mxCell id="saAbReULlgdan71qu-na-3" style="edgeStyle=orthogonalEdgeStyle;rounded=0;orthogonalLoop=1;jettySize=auto;html=1;" parent="WIyWlLk6GJQsqaUBKTNV-1" source="TQRET4Z9Z2pxtcugi2uB-22" target="TQRET4Z9Z2pxtcugi2uB-25" edge="1">
          <mxGeometry relative="1" as="geometry" />
        </mxCell>
        <mxCell id="TQRET4Z9Z2pxtcugi2uB-22" value="Оператор передаёт заявку в работу специалисту" style="rounded=0;whiteSpace=wrap;html=1;fontSize=12;glass=0;strokeWidth=1;shadow=0;fillColor=#f5f5f5;strokeColor=#666666;fontColor=#333333;" parent="WIyWlLk6GJQsqaUBKTNV-1" vertex="1">
          <mxGeometry x="55" y="740" width="130" height="65" as="geometry" />
        </mxCell>
        <mxCell id="saAbReULlgdan71qu-na-4" style="edgeStyle=orthogonalEdgeStyle;rounded=0;orthogonalLoop=1;jettySize=auto;html=1;" parent="WIyWlLk6GJQsqaUBKTNV-1" source="TQRET4Z9Z2pxtcugi2uB-25" target="TQRET4Z9Z2pxtcugi2uB-27" edge="1">
          <mxGeometry relative="1" as="geometry" />
        </mxCell>
        <mxCell id="TQRET4Z9Z2pxtcugi2uB-25" value="Специалист начинает работу" style="rounded=0;whiteSpace=wrap;html=1;fontSize=12;glass=0;strokeWidth=1;shadow=0;fillColor=#f5f5f5;strokeColor=#666666;fontColor=#333333;" parent="WIyWlLk6GJQsqaUBKTNV-1" vertex="1">
          <mxGeometry x="51.25" y="840" width="137.5" height="65" as="geometry" />
        </mxCell>
        <mxCell id="TQRET4Z9Z2pxtcugi2uB-29" value="Да" style="edgeStyle=orthogonalEdgeStyle;rounded=0;orthogonalLoop=1;jettySize=auto;html=1;exitX=1;exitY=0.5;exitDx=0;exitDy=0;" parent="WIyWlLk6GJQsqaUBKTNV-1" source="TQRET4Z9Z2pxtcugi2uB-27" target="TQRET4Z9Z2pxtcugi2uB-28" edge="1">
          <mxGeometry x="-0.6154" y="10" relative="1" as="geometry">
            <mxPoint as="offset" />
          </mxGeometry>
        </mxCell>
        <mxCell id="TQRET4Z9Z2pxtcugi2uB-31" value="Нет" style="edgeStyle=orthogonalEdgeStyle;rounded=0;orthogonalLoop=1;jettySize=auto;html=1;exitX=0.5;exitY=1;exitDx=0;exitDy=0;" parent="WIyWlLk6GJQsqaUBKTNV-1" source="TQRET4Z9Z2pxtcugi2uB-27" target="saAbReULlgdan71qu-na-5" edge="1">
          <mxGeometry x="-0.5005" y="-15" relative="1" as="geometry">
            <mxPoint x="120" y="1260" as="targetPoint" />
            <mxPoint as="offset" />
          </mxGeometry>
        </mxCell>
        <mxCell id="TQRET4Z9Z2pxtcugi2uB-27" value="Требуются доп.&lt;br&gt;комплектующие&lt;span style=&quot;background-color: initial;&quot;&gt;?&lt;/span&gt;" style="rhombus;whiteSpace=wrap;html=1;shadow=0;fontFamily=Helvetica;fontSize=12;align=center;strokeWidth=1;spacing=6;spacingTop=-4;fillColor=#dae8fc;strokeColor=#6c8ebf;" parent="WIyWlLk6GJQsqaUBKTNV-1" vertex="1">
          <mxGeometry x="32.5" y="940" width="175" height="80" as="geometry" />
        </mxCell>
        <mxCell id="saAbReULlgdan71qu-na-7" style="edgeStyle=orthogonalEdgeStyle;rounded=0;orthogonalLoop=1;jettySize=auto;html=1;entryX=0.5;entryY=0;entryDx=0;entryDy=0;exitX=0.5;exitY=1;exitDx=0;exitDy=0;" parent="WIyWlLk6GJQsqaUBKTNV-1" source="TQRET4Z9Z2pxtcugi2uB-28" target="saAbReULlgdan71qu-na-5" edge="1">
          <mxGeometry relative="1" as="geometry">
            <Array as="points">
              <mxPoint x="271" y="1100" />
              <mxPoint x="120" y="1100" />
            </Array>
          </mxGeometry>
        </mxCell>
        <mxCell id="TQRET4Z9Z2pxtcugi2uB-28" value="Специалист заказывает необходимые комплектующие" style="rounded=0;whiteSpace=wrap;html=1;fontSize=12;glass=0;strokeWidth=1;shadow=0;fillColor=#f5f5f5;strokeColor=#666666;fontColor=#333333;" parent="WIyWlLk6GJQsqaUBKTNV-1" vertex="1">
          <mxGeometry x="202.5" y="1010" width="137.5" height="65" as="geometry" />
        </mxCell>
        <mxCell id="saAbReULlgdan71qu-na-6" style="edgeStyle=orthogonalEdgeStyle;rounded=0;orthogonalLoop=1;jettySize=auto;html=1;" parent="WIyWlLk6GJQsqaUBKTNV-1" source="saAbReULlgdan71qu-na-5" target="TQRET4Z9Z2pxtcugi2uB-1" edge="1">
          <mxGeometry relative="1" as="geometry" />
        </mxCell>
        <mxCell id="saAbReULlgdan71qu-na-5" value="Специалист завершает работу" style="rounded=0;whiteSpace=wrap;html=1;fontSize=12;glass=0;strokeWidth=1;shadow=0;fillColor=#f5f5f5;strokeColor=#666666;fontColor=#333333;" parent="WIyWlLk6GJQsqaUBKTNV-1" vertex="1">
          <mxGeometry x="51.25" y="1120" width="137.5" height="65" as="geometry" />
        </mxCell>
      </root>
    </mxGraphModel>
  </diagram>
</mxfile>
